<svg width="26" height="26" viewBox="0 0 26 26" fill="none" xmlns="http://www.w3.org/2000/svg">
<path fill-rule="evenodd" clip-rule="evenodd" d="M1.82765 1.82765C0 3.65531 0 6.59685 0 12.48V13.52C0 19.4032 0 22.3447 1.82765 24.1724C3.65531 26 6.59684 26 12.48 26H13.52C19.4031 26 22.3447 26 24.1724 24.1724C26 22.3447 26 19.4032 26 13.52V12.48C26 6.59686 26 3.65531 24.1724 1.82765C22.3447 0 19.4032 0 13.52 0H12.48C6.59685 0 3.65531 0 1.82765 1.82765ZM4.38835 7.90839C4.52918 14.6684 7.90913 18.7309 13.835 18.7309H14.1709V14.8634C16.3484 15.0801 17.9949 16.6726 18.6557 18.7309H21.7325C20.8875 15.6542 18.6666 13.9534 17.2799 13.3034C18.6666 12.5017 20.6166 10.5517 21.0824 7.90839H18.2873C17.6807 10.0534 15.8826 12.0034 14.1709 12.1876V7.90839H11.3758V15.4051C9.64246 14.9717 7.45418 12.8701 7.35668 7.90839H4.38835Z" fill="white"/>
</svg>
