<svg width="64" height="64" viewBox="0 0 64 64" fill="none" xmlns="http://www.w3.org/2000/svg">
<path fill-rule="evenodd" clip-rule="evenodd" d="M7 32.5C7 18.4167 18.4167 7 32.5 7C46.5833 7 58 18.4167 58 32.5C58 46.5833 46.5833 58 32.5 58C18.4167 58 7 46.5833 7 32.5ZM41.1099 13.866C39.9752 12.6178 38.8416 11.5358 37.8045 10.6289C40.2787 11.2268 42.5933 12.2337 44.6728 13.574C43.6554 13.8344 42.5822 14.0638 41.4615 14.2582C41.3443 14.1256 41.227 13.9948 41.1099 13.866ZM33.9311 11.331C35.0134 12.1608 36.3842 13.3081 37.8111 14.7478C36.1104 14.9125 34.3326 15.0003 32.5 15.0003C30.6675 15.0003 28.8896 14.9125 27.1889 14.7478C28.6158 13.3081 29.9866 12.1608 31.0689 11.331C31.6401 10.8931 32.1287 10.5453 32.5 10.2913C32.8713 10.5453 33.3599 10.8931 33.9311 11.331ZM32.5 18.0003C29.8017 18.0003 27.1939 17.8192 24.744 17.4812C21.9173 21.0028 19.4457 25.5686 19.054 31H23V27.6425C23 26.7445 23.4816 25.9155 24.2617 25.4707L31.2617 21.4794C32.0292 21.0417 32.9708 21.0417 33.7383 21.4794L40.7383 25.4707C41.5184 25.9155 42 26.7445 42 27.6425V31H45.946C45.5543 25.5686 43.0827 21.0028 40.256 17.4812C37.8062 17.8192 35.1984 18.0003 32.5 18.0003ZM42 34V35.4902C42 38.6265 40.0051 40.8973 38.1209 42.3497C36.2108 43.8221 34.1295 44.6825 33.338 44.9813C32.7954 45.1862 32.2046 45.1862 31.662 44.9813C30.8705 44.6825 28.7892 43.8221 26.8791 42.3497C24.9949 40.8973 23 38.6265 23 35.4902V34H19.054C19.4457 39.4316 21.9174 43.9975 24.7442 47.5191C27.194 47.181 29.8017 47 32.5 47C35.1983 47 37.806 47.181 40.2558 47.519C43.0826 43.9974 45.5543 39.4316 45.946 34H42ZM16.047 31C16.4007 25.366 18.7064 20.6172 21.4093 16.9047C19.9849 16.6057 18.6339 16.2502 17.3728 15.8439C13.1894 19.6456 10.444 25.0018 10.0492 31H16.047ZM10.0492 34H16.047C16.4007 39.6341 18.7065 44.383 21.4095 48.0956C19.9851 48.3945 18.6342 48.7501 17.3731 49.1563C13.1895 45.3546 10.444 39.9983 10.0492 34ZM54.9508 34C54.556 39.9983 51.8105 45.3546 47.627 49.1563C46.3659 48.75 45.015 48.3945 43.5905 48.0956C46.2935 44.3829 48.5993 39.6341 48.953 34H54.9508ZM54.9508 31H48.953C48.5993 25.366 46.2936 20.6173 43.5907 16.9047C45.0151 16.6057 46.3661 16.2502 47.6272 15.8439C51.8106 19.6456 54.556 25.0018 54.9508 31ZM23.8901 13.866C23.773 13.9948 23.6557 14.1256 23.5385 14.2582C22.4178 14.0638 21.3447 13.8344 20.3272 13.5739C22.4067 12.2337 24.7213 11.2268 27.1955 10.6289C26.1584 11.5358 25.0248 12.6178 23.8901 13.866ZM20.3275 51.4263C21.3449 51.1658 22.418 50.9365 23.5387 50.7421C23.6559 50.8746 23.773 51.0052 23.8901 51.134C25.0248 52.3822 26.1584 53.4642 27.1955 54.3711C24.7214 53.7732 22.4069 52.7664 20.3275 51.4263ZM41.1099 51.134C39.9752 52.3822 38.8416 53.4642 37.8045 54.3711C40.2786 53.7732 42.5931 52.7664 44.6725 51.4262C43.6551 51.1658 42.582 50.9365 41.4613 50.7421C41.3441 50.8746 41.227 51.0052 41.1099 51.134ZM32.5 50C34.3325 50 36.1103 50.0878 37.8109 50.2525C36.384 51.692 35.0133 52.8393 33.9311 53.669C33.3599 54.1069 32.8713 54.4547 32.5 54.7087C32.1287 54.4547 31.6401 54.1069 31.0689 53.669C29.9867 52.8393 28.616 51.692 27.1891 50.2525C28.8898 50.0878 30.6676 50 32.5 50ZM26 27.933L32.5 24.2267L39 27.933V35.4902C39 37.2489 37.8837 38.7447 36.2893 39.9737C34.8699 41.0679 33.2899 41.7746 32.5 42.0887C31.7101 41.7746 30.1301 41.0679 28.7107 39.9737C27.1163 38.7447 26 37.2489 26 35.4902V27.933Z" fill="#29CCB1"/>
</svg>
