<svg width="64" height="64" viewBox="0 0 64 64" fill="none" xmlns="http://www.w3.org/2000/svg">
<path d="M28.5604 27.5614C29.1462 26.9756 29.1462 26.0259 28.5604 25.4401C27.9746 24.8543 27.0249 24.8543 26.4391 25.4401L22.499 29.3801L20.559 27.4401C19.9732 26.8543 19.0234 26.8543 18.4376 27.4401C17.8519 28.0259 17.8519 28.9756 18.4376 29.5614L21.4384 32.5621C22.0241 33.1479 22.9739 33.1479 23.5597 32.5621L28.5604 27.5614Z" fill="#29CCB1"/>
<path d="M32.499 26C31.6706 26 30.999 26.6716 30.999 27.5C30.999 28.3284 31.6706 29 32.499 29H43.499C44.3274 29 44.999 28.3284 44.999 27.5C44.999 26.6716 44.3274 26 43.499 26H32.499Z" fill="#29CCB1"/>
<path d="M30.999 31.5C30.999 30.6716 31.6706 30 32.499 30H39.499C40.3274 30 40.999 30.6716 40.999 31.5C40.999 32.3284 40.3274 33 39.499 33H32.499C31.6706 33 30.999 32.3284 30.999 31.5Z" fill="#29CCB1"/>
<path d="M28.5604 40.5614C29.1462 39.9756 29.1462 39.0259 28.5604 38.4401C27.9746 37.8543 27.0249 37.8543 26.4391 38.4401L22.499 42.3801L20.559 40.4401C19.9732 39.8543 19.0234 39.8543 18.4376 40.4401C17.8519 41.0259 17.8519 41.9756 18.4376 42.5614L21.4384 45.5621C22.0241 46.1479 22.9739 46.1479 23.5597 45.5621L28.5604 40.5614Z" fill="#29CCB1"/>
<path d="M30.999 40.5C30.999 39.6716 31.6706 39 32.499 39H41.499C42.3274 39 42.999 39.6716 42.999 40.5C42.999 41.3284 42.3274 42 41.499 42H32.499C31.6706 42 30.999 41.3284 30.999 40.5Z" fill="#29CCB1"/>
<path d="M32.499 43C31.6706 43 30.999 43.6716 30.999 44.5C30.999 45.3284 31.6706 46 32.499 46H37.499C38.3274 46 38.999 45.3284 38.999 44.5C38.999 43.6716 38.3274 43 37.499 43H32.499Z" fill="#29CCB1"/>
<path fill-rule="evenodd" clip-rule="evenodd" d="M15.5 6C13.567 6 12 7.56701 12 9.5V53.5C12 55.433 13.567 57 15.5 57H47.5C49.433 57 51 55.433 51 53.5V18.3284C51 17.4002 50.6313 16.5099 49.9749 15.8536L41.1464 7.02513C40.4901 6.36875 39.5998 6 38.6716 6H15.5ZM15.5 9C15.2239 9 15 9.22386 15 9.5V53.5C15 53.7761 15.2239 54 15.5 54H47.5C47.7761 54 48 53.7761 48 53.5V21H39.5C37.567 21 36 19.433 36 17.5V9H15.5ZM39 9.12299V17.5C39 17.7761 39.2239 18 39.5 18H47.877C47.8695 17.9914 47.8617 17.983 47.8536 17.9749L39.0251 9.14645C39.017 9.13832 39.0086 9.1305 39 9.12299Z" fill="#29CCB1"/>
</svg>
