<svg width="26" height="26" viewBox="0 0 26 26" fill="none" xmlns="http://www.w3.org/2000/svg">
<path fill-rule="evenodd" clip-rule="evenodd" d="M26 13C26 20.1797 20.1797 26 13 26C5.8203 26 0 20.1797 0 13C0 5.8203 5.8203 0 13 0C20.1797 0 26 5.8203 26 13ZM13.4675 9.59707C12.203 10.123 9.67593 11.2115 5.88616 12.8627C5.27077 13.1074 4.94839 13.3468 4.91905 13.5809C4.86945 13.9765 5.36489 14.1323 6.03954 14.3445C6.13131 14.3733 6.2264 14.4032 6.32388 14.4349C6.98764 14.6507 7.88051 14.9031 8.34468 14.9131C8.76572 14.9222 9.23565 14.7486 9.75447 14.3924C13.2954 12.0022 15.1232 10.794 15.2379 10.768C15.3189 10.7496 15.4311 10.7265 15.5071 10.7941C15.5831 10.8616 15.5756 10.9896 15.5676 11.0239C15.5185 11.2331 13.5738 13.0412 12.5673 13.9768C12.2536 14.2685 12.031 14.4754 11.9855 14.5227C11.8836 14.6285 11.7798 14.7287 11.6799 14.8249C11.0633 15.4193 10.6009 15.8651 11.7055 16.5931C12.2364 16.9429 12.6612 17.2322 13.085 17.5208C13.5478 17.836 14.0094 18.1504 14.6067 18.5419C14.7589 18.6416 14.9042 18.7452 15.0457 18.8461C15.5844 19.2301 16.0683 19.5751 16.6661 19.5201C17.0135 19.4881 17.3723 19.1615 17.5545 18.1873C17.9852 15.885 18.8317 10.8966 19.0273 8.84096C19.0445 8.66086 19.0229 8.43037 19.0056 8.32919C18.9883 8.22801 18.9521 8.08385 18.8206 7.97713C18.6648 7.85075 18.4244 7.8241 18.3168 7.82599C17.8279 7.8346 17.0777 8.09545 13.4675 9.59707Z" fill="white"/>
</svg>
