<svg width="64" height="64" viewBox="0 0 64 64" fill="none" xmlns="http://www.w3.org/2000/svg">
<path d="M30.7447 7.94173C29.9739 7.49924 29.0261 7.49924 28.2553 7.94173L12.2553 17.1269C11.4788 17.5727 11 18.3997 11 19.295V38.1939C11 43.4594 14.1925 47.686 18.1816 50.908C22.1537 54.1162 26.6826 56.1312 28.808 56.9726C29.258 57.1507 29.742 57.1507 30.192 56.9726C32.3174 56.1312 36.8463 54.1162 40.8184 50.908C43.9001 48.4189 46.5064 45.3303 47.5326 41.6262L47.6286 41.7924C48.1924 42.769 49.0713 43.391 50.0344 43.6517C48.5924 47.6152 45.7209 50.8047 42.7034 53.2419C38.39 56.7257 33.541 58.8733 31.2962 59.762C30.1368 60.221 28.8632 60.221 27.7038 59.762C25.459 58.8733 20.61 56.7257 16.2966 53.2419C12.0003 49.7718 8 44.7767 8 38.1939V19.295C8 17.3253 9.05341 15.5059 10.7617 14.5252L26.7617 5.33997C28.4575 4.36649 30.5425 4.36649 32.2383 5.33997L41.8122 10.8361C40.6894 11.2519 39.637 11.8127 38.6777 12.4959L30.7447 7.94173Z" fill="#29CCB1"/>
<path fill-rule="evenodd" clip-rule="evenodd" d="M46.5 18C43.4624 18 41 20.4624 41 23.5C41 26.5376 43.4624 29 46.5 29C49.5376 29 52 26.5376 52 23.5C52 20.4624 49.5376 18 46.5 18ZM44 23.5C44 22.1193 45.1193 21 46.5 21C47.8807 21 49 22.1193 49 23.5C49 24.8807 47.8807 26 46.5 26C45.1193 26 44 24.8807 44 23.5Z" fill="#29CCB1"/>
<path fill-rule="evenodd" clip-rule="evenodd" d="M35.8452 36.2907L38.9929 30.8388C37.1413 28.9456 36 26.3549 36 23.4976C36 17.6986 40.701 12.9976 46.5 12.9976C52.299 12.9976 57 17.6986 57 23.4976C57 26.355 55.8586 28.9459 54.0068 30.8391L57.1549 36.2917C57.5266 36.9355 57.0908 37.7454 56.3488 37.7899L53.9989 37.931C53.6847 37.9498 53.3977 38.1155 53.2243 38.3782L51.9272 40.3427C51.5176 40.9631 50.5984 40.9355 50.2267 40.2917L46.5925 33.9972C46.5617 33.9974 46.5309 33.9976 46.5 33.9976C46.469 33.9976 46.438 33.9974 46.407 33.9972L42.7734 40.2907C42.4017 40.9345 41.4824 40.9621 41.0728 40.3417L39.7757 38.3772C39.6023 38.1145 39.3153 37.9488 39.0011 37.93L36.6513 37.7889C35.9092 37.7444 35.4735 36.9345 35.8452 36.2907ZM46.5 15.9976C42.3579 15.9976 39 19.3554 39 23.4976C39 27.6397 42.3579 30.9976 46.5 30.9976C50.6421 30.9976 54 27.6397 54 23.4976C54 19.3554 50.6421 15.9976 46.5 15.9976Z" fill="#29CCB1"/>
</svg>
