<svg width="64" height="64" viewBox="0 0 64 64" fill="none" xmlns="http://www.w3.org/2000/svg">
<path d="M18 43.5C18 42.6716 17.3284 42 16.5 42C15.6716 42 15 42.6716 15 43.5V46.5C15 47.3284 15.6716 48 16.5 48C17.3284 48 18 47.3284 18 46.5V43.5Z" fill="#29CCB1"/>
<path d="M23 43.5C23 42.6716 22.3284 42 21.5 42C20.6716 42 20 42.6716 20 43.5V46.5C20 47.3284 20.6716 48 21.5 48C22.3284 48 23 47.3284 23 46.5V43.5Z" fill="#29CCB1"/>
<path d="M28 43.5C28 42.6716 27.3284 42 26.5 42C25.6716 42 25 42.6716 25 43.5V46.5C25 47.3284 25.6716 48 26.5 48C27.3284 48 28 47.3284 28 46.5V43.5Z" fill="#29CCB1"/>
<path d="M33 43.5C33 42.6716 32.3284 42 31.5 42C30.6716 42 30 42.6716 30 43.5V46.5C30 47.3284 30.6716 48 31.5 48C32.3284 48 33 47.3284 33 46.5V43.5Z" fill="#29CCB1"/>
<path d="M38 43.5C38 42.6716 37.3284 42 36.5 42C35.6716 42 35 42.6716 35 43.5V46.5C35 47.3284 35.6716 48 36.5 48C37.3284 48 38 47.3284 38 46.5V43.5Z" fill="#29CCB1"/>
<path fill-rule="evenodd" clip-rule="evenodd" d="M48.5002 4C49.2621 4 49.9029 4.57118 49.9903 5.32806L55.9903 57.3281C56.0393 57.753 55.9046 58.1787 55.62 58.498C55.3353 58.8174 54.9279 59 54.5002 59H8.5C7.67157 59 7 58.3284 7 57.5V38.5C7 38.0279 7.22229 37.5833 7.6 37.3L15.6 31.3C16.0545 30.9591 16.6626 30.9043 17.1708 31.1584C17.679 31.4124 18 31.9318 18 32.5V37L25.6 31.3C26.0545 30.9591 26.6626 30.9043 27.1708 31.1584C27.679 31.4124 28 31.9318 28 32.5V37H35.3556L39.01 5.32806C39.0974 4.57118 39.7382 4 40.5002 4H48.5002ZM52.8171 56H46V38.5C46 37.6716 45.3284 37 44.5 37H38.3755L40.337 20H48.6633L52.8171 56ZM40.6832 17H48.3171L48.0864 15H40.914L40.6832 17ZM47.1633 7L47.7402 12H41.2601L41.837 7H47.1633ZM10 39.25V56H43V40H26.5C25.6716 40 25 39.3284 25 38.5V35.5L19.4 39.7C19.1404 39.8947 18.8246 40 18.5 40H16.5C15.6716 40 15 39.3284 15 38.5V35.5L10 39.25Z" fill="#29CCB1"/>
</svg>
