<svg width="64" height="64" viewBox="0 0 64 64" fill="none" xmlns="http://www.w3.org/2000/svg">
<path d="M46.5 22.5C47.6046 22.5 48.5 21.6046 48.5 20.5C48.5 19.3954 47.6046 18.5 46.5 18.5C45.3954 18.5 44.5 19.3954 44.5 20.5C44.5 21.6046 45.3954 22.5 46.5 22.5Z" fill="#29CCB1"/>
<path fill-rule="evenodd" clip-rule="evenodd" d="M56.0864 21.6165C56.6577 20.9693 56.6577 20.0307 56.0864 19.3835C54.4458 17.5253 50.7707 14 46.5 14C42.2293 14 38.5541 17.5253 36.9136 19.3835C36.3423 20.0307 36.3423 20.9693 36.9136 21.6165C38.5542 23.4747 42.2293 27 46.5 27C50.7707 27 54.4458 23.4747 56.0864 21.6165ZM53.021 20.5C52.3613 19.8394 51.5374 19.1105 50.6066 18.4852C49.2193 17.5532 47.817 17 46.5 17C45.183 17 43.7807 17.5532 42.3934 18.4852C41.4626 19.1105 40.6387 19.8394 39.979 20.5C40.6387 21.1606 41.4626 21.8895 42.3934 22.5148C43.7807 23.4468 45.183 24 46.5 24C47.817 24 49.2193 23.4468 50.6066 22.5148C51.5374 21.8895 52.3613 21.1606 53.021 20.5Z" fill="#29CCB1"/>
<path fill-rule="evenodd" clip-rule="evenodd" d="M46.5 5C37.9396 5 31 11.9396 31 20.5C31 29.0604 37.9396 36 46.5 36C55.0604 36 62 29.0604 62 20.5C62 11.9396 55.0604 5 46.5 5ZM34 20.5C34 13.5964 39.5964 8 46.5 8C53.4036 8 59 13.5964 59 20.5C59 27.4036 53.4036 33 46.5 33C39.5964 33 34 27.4036 34 20.5Z" fill="#29CCB1"/>
<path d="M59 45.5V34.1383C58.0807 34.9814 57.0758 35.7327 56 36.3778V45.5C56 45.7761 55.7761 46 55.5 46H7.5C7.22386 46 7 45.7761 7 45.5L7 17.5C7 17.2239 7.22385 17 7.5 17L28.3306 17C28.5284 15.9669 28.8122 14.9643 29.1741 14H7.5C5.56701 14 4 15.567 4 17.5V45.5C4 47.433 5.567 49 7.5 49H55.5C57.433 49 59 47.433 59 45.5Z" fill="#29CCB1"/>
<path d="M36.3966 36C35.1343 35.1755 33.9789 34.201 32.9557 33.1018C32.3964 33.3197 32 33.8636 32 34.5C32 35.3284 32.6716 36 33.5 36H36.3966Z" fill="#29CCB1"/>
<path fill-rule="evenodd" clip-rule="evenodd" d="M15 25.5C15 23.0147 17.0147 21 19.5 21C21.9853 21 24 23.0147 24 25.5C24 27.9853 21.9853 30 19.5 30C17.0147 30 15 27.9853 15 25.5ZM19.5 24C18.6716 24 18 24.6716 18 25.5C18 26.3284 18.6716 27 19.5 27C20.3284 27 21 26.3284 21 25.5C21 24.6716 20.3284 24 19.5 24Z" fill="#29CCB1"/>
<path fill-rule="evenodd" clip-rule="evenodd" d="M16.5 32C13.4624 32 11 34.4624 11 37.5V40.5C11 41.3284 11.6716 42 12.5 42H26.5C27.3284 42 28 41.3284 28 40.5V37.5C28 34.4624 25.5376 32 22.5 32H16.5ZM14 37.5C14 36.1193 15.1193 35 16.5 35H22.5C23.8807 35 25 36.1193 25 37.5V39H14V37.5Z" fill="#29CCB1"/>
<path d="M33.5 39C32.6716 39 32 39.6716 32 40.5C32 41.3284 32.6716 42 33.5 42H45.5C46.3284 42 47 41.3284 47 40.5C47 39.6716 46.3284 39 45.5 39H33.5Z" fill="#29CCB1"/>
</svg>
