<svg width="176" height="56" viewBox="0 0 176 56" fill="none" xmlns="http://www.w3.org/2000/svg">
<path d="M81.3804 27.9227C81.3804 33.042 78.257 35.4621 74.3478 35.4621H71.959V32.3909H74.1618C76.5202 32.3909 78.0919 31.1192 78.0919 27.9237C78.0919 24.7281 76.6057 23.1764 74.0925 23.1764C71.5794 23.1764 69.9432 24.6655 69.9432 27.862V40.7067H66.685V20.5076H69.9432V22.2454H70.4082C71.4939 20.7876 73.0998 20.1356 74.7749 20.1356C78.3738 20.1356 81.3804 22.7417 81.3804 27.9237V27.9227ZM59.9703 26.5883L57.7988 26.371C56.0924 26.2163 55.1927 25.7503 55.1927 24.7576C55.1927 23.5788 56.3411 22.8964 57.9849 22.8964C59.6286 22.8964 60.777 23.7031 60.87 24.8506H64.0039C63.8795 21.9341 61.6151 20.1346 58.0162 20.1346C54.4173 20.1346 51.9355 22.0584 51.9355 24.8819C51.9355 27.2403 53.4246 28.7598 56.8071 29.1015L59.0098 29.3188C60.3442 29.4431 61.244 29.7221 61.244 30.9939C61.244 32.1423 60.4059 32.9794 58.2031 32.9794C56.175 32.9794 55.1746 32.0588 54.8244 30.825H51.4344C51.7722 33.6456 54.1411 35.8342 58.2031 35.8342C62.0194 35.8342 64.5012 33.8174 64.5012 30.8392C64.5012 28.2017 62.7634 26.8683 59.9713 26.5883H59.9703ZM93.9974 30.825C93.4858 31.999 92.2653 32.8864 90.5323 32.8864C88.1435 32.8864 86.3745 31.3346 86.3745 27.9844C86.3745 24.6342 88.0192 23.0198 90.5627 23.0198C92.8272 23.0198 94.1303 24.3846 94.2546 26.4327H88.3903V28.7911H97.4501V27.2394C97.4501 22.9268 94.5953 20.1346 90.5314 20.1346C86.7465 20.1346 83.1163 22.7095 83.1163 27.9844C83.1163 33.2593 86.7465 35.8342 90.5314 35.8342C93.9936 35.8342 96.4621 33.7016 97.229 30.825H93.9965H93.9974ZM42.6421 20.1356C39.0746 20.1356 36.4058 21.9977 36.0954 24.8515H39.6013C39.85 23.7971 40.8114 23.0217 42.6421 23.0217C45.0006 23.0217 45.776 24.2631 45.776 25.7825V30.9018C44.4416 32.4223 42.8908 33.136 41.3391 33.136C39.7873 33.136 38.6086 32.3606 38.6086 30.9645C38.6086 29.5684 39.477 28.793 41.1531 28.793H43.7592V26.4346H41.06C37.3368 26.4346 35.2584 28.2966 35.2584 31.1505C35.2584 33.8183 37.2751 35.8351 40.595 35.8351C42.4561 35.8351 44.1009 35.0911 45.3109 34.1904H45.776V35.4621H49.0341V25.4713C49.0341 21.7794 46.521 20.1346 42.6431 20.1346L42.6421 20.1356ZM20.5383 35.4621H23.7964V14.985H20.5383V35.4621ZM34.221 20.5076H30.2501L25.5029 26.744V28.699L30.3735 35.4621H34.407L28.6984 27.7054L34.221 20.5076ZM151.989 20.5076L149.321 26.4336C148.669 27.861 148.049 29.2571 147.863 30.1881H147.397C147.211 29.2571 146.56 27.8923 145.908 26.4649L143.24 20.5076H139.641L145.909 33.9417L142.806 40.7058H146.281L155.588 20.5076H151.99H151.989ZM138.92 20.5076H134.949L130.202 26.744V28.699L135.073 35.4621H139.107L133.398 27.7054L138.921 20.5076H138.92ZM118.523 26.5883L116.352 26.371C114.645 26.2163 113.746 25.7503 113.746 24.7576C113.746 23.5788 114.894 22.8964 116.538 22.8964C118.182 22.8964 119.33 23.7031 119.423 24.8506H122.557C122.433 21.9341 120.168 20.1346 116.569 20.1346C112.97 20.1346 110.488 22.0584 110.488 24.8819C110.488 27.2403 111.978 28.7598 115.36 29.1015L117.563 29.3188C118.897 29.4431 119.797 29.7221 119.797 30.9939C119.797 32.1423 118.959 32.9794 116.756 32.9794C114.728 32.9794 113.728 32.0588 113.377 30.825H109.987C110.325 33.6456 112.694 35.8342 116.756 35.8342C120.572 35.8342 123.054 33.8174 123.054 30.8392C123.054 28.2017 121.316 26.8683 118.524 26.5883H118.523ZM125.238 35.4621H128.496V14.985H125.238V35.4621ZM103.756 22.2454H103.291V20.5076H100.033V35.4621H103.291V27.6437C103.291 24.9758 104.524 23.4241 106.952 23.4241H109.015V20.1356H107.821C105.568 20.1356 104.61 20.985 103.756 22.2454Z" fill="white"/>
</svg>
