<svg width="149" height="48" viewBox="0 0 149 48" fill="none" xmlns="http://www.w3.org/2000/svg">
<path d="M6.224 22.232L8.512 17.8H10.816L4.88 29H2.544L4.496 25.32L0.384 17.8H2.752L5.088 22.232C5.232 22.52 5.392 22.856 5.52 23.256H5.792C5.92 22.856 6.08 22.52 6.224 22.232ZM13.538 29.208C11.106 29.208 9.794 27.944 9.682 26.36H11.682C11.778 26.968 12.37 27.496 13.586 27.496C14.578 27.496 15.17 27.176 15.17 26.504C15.17 25.976 14.802 25.672 13.794 25.672H12.466V24.056H13.842C14.594 24.056 15.042 23.752 15.042 23.192C15.042 22.616 14.546 22.344 13.634 22.344C12.578 22.344 11.938 22.76 11.81 23.48H9.81C9.97 21.88 11.314 20.632 13.634 20.632C15.858 20.632 17.042 21.64 17.042 22.984C17.042 23.848 16.562 24.408 15.922 24.616V24.904C16.658 25.112 17.186 25.64 17.186 26.616C17.186 28.184 15.826 29.208 13.538 29.208ZM20.4868 29H18.4868V20.84H20.4868V23.816H24.0548V20.84H26.0548V29H24.0548V25.704H20.4868V29ZM31.2921 20.632C33.5001 20.632 34.7641 21.72 34.7641 23.624V29H32.7801V28.312H32.4921C31.9801 28.856 31.0841 29.208 30.1081 29.208C28.3001 29.208 27.2121 28.2 27.2121 26.712C27.2121 25.16 28.2841 24.136 30.2841 24.136H32.7641V23.752C32.7641 22.968 32.3161 22.424 31.2601 22.424C30.3801 22.424 29.8041 22.824 29.6921 23.496H27.5641C27.7401 21.848 29.0841 20.632 31.2921 20.632ZM30.6041 27.56C31.4521 27.56 32.2041 27.176 32.7641 26.456V25.56H30.4921C29.7081 25.56 29.2601 25.896 29.2601 26.536C29.2601 27.208 29.8201 27.56 30.6041 27.56ZM40.2721 29H38.2561V22.728H35.5521V20.84H42.9761V22.728H40.2721V29ZM45.9711 23.416H47.7791C49.8111 23.416 51.0271 24.456 51.0271 26.216C51.0271 27.96 49.8111 29 47.7791 29H43.9711V20.84H45.9711V23.416ZM45.9711 27.32H47.7631C48.5791 27.32 49.0271 26.936 49.0271 26.216C49.0271 25.48 48.5791 25.096 47.7631 25.096H45.9711V27.32ZM59.2893 29.208C56.7293 29.208 55.0013 27.432 55.0013 24.776V23.16C55.0013 20.408 56.1053 18.376 58.7933 18.088L60.3773 17.928C60.7453 17.896 60.9533 17.816 61.0333 17.4L61.0813 17.128H63.0813L63.0493 17.736C62.9853 18.92 62.2653 19.624 60.8893 19.768L59.1133 19.944C57.5773 20.088 56.9373 21 56.9053 22.328H57.1933C57.6893 21.704 58.6333 21.208 59.7693 21.208C61.8813 21.208 63.5613 22.856 63.5613 25.08C63.5613 27.304 61.8493 29.208 59.2893 29.208ZM59.2893 27.336C60.6493 27.336 61.5293 26.456 61.5293 25.128C61.5293 23.8 60.6493 22.92 59.2893 22.92C57.9453 22.92 57.0653 23.8 57.0653 25.128C57.0653 26.456 57.9453 27.336 59.2893 27.336ZM68.7196 29.208C66.1276 29.208 64.4636 27.272 64.4636 24.92C64.4636 22.568 66.1276 20.632 68.7196 20.632C71.2956 20.632 72.9596 22.568 72.9596 24.92C72.9596 27.272 71.2956 29.208 68.7196 29.208ZM68.7196 27.32C69.9036 27.32 70.9276 26.408 70.9276 24.92C70.9276 23.432 69.9036 22.52 68.7196 22.52C67.5196 22.52 66.5116 23.432 66.5116 24.92C66.5116 26.408 67.5196 27.32 68.7196 27.32ZM74.789 24.44L74.885 20.84H81.173V29H79.173V22.728H76.725L76.677 24.456C76.613 27.32 76.021 29.096 73.797 29.096H73.205V27.176H73.429C74.165 27.176 74.725 26.92 74.789 24.44ZM84.7055 23.416H86.5135C88.5455 23.416 89.7615 24.456 89.7615 26.216C89.7615 27.96 88.5455 29 86.5135 29H82.7055V20.84H84.7055V23.416ZM84.7055 27.32H86.4975C87.3135 27.32 87.7615 26.936 87.7615 26.216C87.7615 25.48 87.3135 25.096 86.4975 25.096H84.7055V27.32ZM102.429 29H90.9086V20.84H92.9086V27.112H95.6606V20.84H97.6606V27.112H100.429V20.84H102.429V29ZM111.731 24.488V25.448H105.651C105.843 26.808 106.723 27.4 107.795 27.4C108.787 27.4 109.379 26.952 109.571 26.344H111.571C111.171 28.008 109.827 29.208 107.795 29.208C105.299 29.208 103.651 27.384 103.651 24.936C103.651 22.504 105.283 20.632 107.795 20.632C110.115 20.632 111.731 22.248 111.731 24.488ZM105.715 24.024H109.779C109.715 23.096 109.011 22.328 107.811 22.328C106.803 22.328 105.971 22.888 105.715 24.024Z" fill="#29CCB1"/>
<path fill-rule="evenodd" clip-rule="evenodd" d="M139.293 18.2934C139.683 17.9029 140.317 17.9029 140.707 18.2934L145.707 23.2934C145.895 23.4809 146 23.7353 146 24.0005C146 24.2657 145.895 24.5201 145.707 24.7076L140.707 29.7076C140.317 30.0981 139.683 30.0981 139.293 29.7076C138.902 29.3171 138.902 28.6839 139.293 28.2934L142.586 25.0005L120 25.0005C119.448 25.0005 119 24.5528 119 24.0005C119 23.4482 119.448 23.0005 120 23.0005L142.586 23.0005L139.293 19.7076C138.902 19.3171 138.902 18.6839 139.293 18.2934Z" fill="#00A88E"/>
</svg>
